<svg width="330" height="100" viewBox="0 0 330 100" class="css-1j8o68f">
    <defs id="SvgjsDefs1255"></defs>
    <g id="SvgjsG1256" featurekey="symbolContainer" transform="matrix(1,0,0,1,0,0)" fill="#111111">
        <rect width="110" height="100"></rect>
    </g>
    <g
        id="SvgjsG1257"
        featurekey="symbolFeature-0"
        transform="matrix(0.875,0,0,0.875,11.25,6.2098388671875)"
        fill="#61c0bf"
    >
        <path
            xmlns="http://www.w3.org/2000/svg"
            d="M84.3970947,57.6627197c-0.2868042-3.8248291-3.494812-6.8511963-7.4063721-6.8511963H50.9365234V38.3347168  c4.7996216-0.4996948,8.5537109-4.5530396,8.5537109-9.4645996c0-5.2480469-4.2856445-9.5175781-9.5537109-9.5175781  s-9.5541992,4.2695312-9.5541992,9.5175781c0,4.9115601,3.7544556,8.9649048,8.5541992,9.4645996v12.4768066H23.0092773  c-3.9115601,0-7.1195679,3.0263672-7.4063721,6.8511963C12.4378662,58.1333008,10,60.8522339,10,64.1347656  c0,3.6123047,2.9492188,6.5507812,6.574707,6.5507812s6.574707-2.9384766,6.574707-6.5507812  c0-3.2631226-2.4091797-5.9692383-5.546875-6.463501c0.2762451-2.725708,2.5955811-4.8597412,5.4067383-4.8597412h8.7714844  v14.3466797c-3.1512451,0.4824219-5.574707,3.1940308-5.574707,6.4667969c0,3.6123047,2.9492188,6.5517578,6.574707,6.5517578  s6.574707-2.9394531,6.574707-6.5517578c0-3.2727661-2.4234619-5.984375-5.574707-6.4667969V52.8115234h15.1557617v24.1708984  c-3.1512451,0.4824219-5.574707,3.1940308-5.574707,6.4667969C43.3618164,87.0615234,46.3110352,90,49.9365234,90  s6.574707-2.9384766,6.574707-6.5507812c0-3.2727661-2.4234619-5.984375-5.574707-6.4667969V52.8115234h15.2827148v14.3466797  c-3.1512451,0.4824219-5.574707,3.1940308-5.574707,6.4667969c0,3.6123047,2.9492188,6.5517578,6.574707,6.5517578  s6.574707-2.9394531,6.574707-6.5517578c0-3.2727661-2.4234619-5.984375-5.574707-6.4667969V52.8115234h8.7714844  c2.8111572,0,5.1304932,2.1340332,5.4067383,4.8597412c-3.1376953,0.4942627-5.546875,3.2003784-5.546875,6.463501  c0,3.6123047,2.9492188,6.5507812,6.574707,6.5507812S90,67.7470703,90,64.1347656  C90,60.8522339,87.5621338,58.1333008,84.3970947,57.6627197z M42.3823242,28.8701172  c0-4.1455078,3.3886719-7.5175781,7.5541992-7.5175781c4.1650391,0,7.5537109,3.3720703,7.5537109,7.5175781  s-3.3886719,7.5175781-7.5537109,7.5175781C45.7709961,36.3876953,42.3823242,33.015625,42.3823242,28.8701172z   M21.1494141,64.1347656c0,2.5097656-2.0522461,4.5507812-4.574707,4.5507812S12,66.6445312,12,64.1347656  s2.0522461-4.5517578,4.574707-4.5517578S21.1494141,61.625,21.1494141,64.1347656z M37.3554688,73.625  c0,2.5097656-2.0522461,4.5517578-4.574707,4.5517578s-4.574707-2.0419922-4.574707-4.5517578  s2.0522461-4.5507812,4.574707-4.5507812S37.3554688,71.1152344,37.3554688,73.625z M54.5112305,83.4492188  C54.5112305,85.9589844,52.4589844,88,49.9365234,88s-4.574707-2.0410156-4.574707-4.5507812  s2.0522461-4.5507812,4.574707-4.5507812S54.5112305,80.9394531,54.5112305,83.4492188z M71.7939453,73.625  c0,2.5097656-2.0522461,4.5517578-4.574707,4.5517578s-4.574707-2.0419922-4.574707-4.5517578  s2.0522461-4.5507812,4.574707-4.5507812S71.7939453,71.1152344,71.7939453,73.625z M83.425293,68.6855469  c-2.5224609,0-4.574707-2.0410156-4.574707-4.5507812s2.0522461-4.5517578,4.574707-4.5517578S88,61.625,88,64.1347656  S85.9477539,68.6855469,83.425293,68.6855469z"
        ></path>
        <path
            xmlns="http://www.w3.org/2000/svg"
            d="M50.9365234,14.4306641v-3.3847656c0-0.5527344-0.4477539-1-1-1s-1,0.4472656-1,1v3.3847656c0,0.5527344,0.4477539,1,1,1  S50.9365234,14.9833984,50.9365234,14.4306641z"
        ></path>
        <path
            xmlns="http://www.w3.org/2000/svg"
            d="M39.121582,17.1660156l-2.3935547-2.3925781c-0.390625-0.390625-1.0244141-0.390625-1.4140625,0  c-0.390625,0.390625-0.390625,1.0234375,0,1.4140625l2.3935547,2.3925781  c0.1953125,0.1953125,0.4511719,0.2929688,0.7070312,0.2929688s0.512207-0.0976562,0.7070312-0.2929688  C39.512207,18.1894531,39.512207,17.5566406,39.121582,17.1660156z"
        ></path>
        <path
            xmlns="http://www.w3.org/2000/svg"
            d="M31.5869141,28.3955078c-0.5522461,0-1,0.4472656-1,1s0.4477539,1,1,1h3.3847656c0.5522461,0,1-0.4472656,1-1  s-0.4477539-1-1-1H31.5869141z"
        ></path>
        <path
            xmlns="http://www.w3.org/2000/svg"
            d="M37.7075195,40.2099609l-2.3935547,2.3935547c-0.390625,0.390625-0.390625,1.0234375,0,1.4140625  c0.1953125,0.1953125,0.4511719,0.2929688,0.7070312,0.2929688s0.5117188-0.0976562,0.7070312-0.2929688l2.3935547-2.3935547  c0.390625-0.390625,0.390625-1.0234375,0-1.4140625S38.0981445,39.8193359,37.7075195,40.2099609z"
        ></path>
        <path
            xmlns="http://www.w3.org/2000/svg"
            d="M60.7509766,41.6240234l2.3935547,2.3935547c0.1953125,0.1953125,0.4511719,0.2929688,0.7070312,0.2929688  s0.5117188-0.0976562,0.7070312-0.2929688c0.390625-0.390625,0.390625-1.0234375,0-1.4140625l-2.3935547-2.3935547  c-0.390625-0.390625-1.0234375-0.390625-1.4140625,0S60.3603516,41.2333984,60.7509766,41.6240234z"
        ></path>
        <path
            xmlns="http://www.w3.org/2000/svg"
            d="M63.9008789,29.3955078c0,0.5527344,0.4477539,1,1,1h3.3847656c0.5522461,0,1-0.4472656,1-1s-0.4477539-1-1-1h-3.3847656  C64.3486328,28.3955078,63.9008789,28.8427734,63.9008789,29.3955078z"
        ></path>
        <path
            xmlns="http://www.w3.org/2000/svg"
            d="M63.1445312,14.7734375l-2.3935547,2.3925781c-0.390625,0.390625-0.390625,1.0234375,0,1.4140625  c0.1953125,0.1953125,0.4511719,0.2929688,0.7070312,0.2929688s0.5117188-0.0976562,0.7070312-0.2929688L64.5585938,16.1875  c0.390625-0.390625,0.390625-1.0234375,0-1.4140625S63.5351562,14.3828125,63.1445312,14.7734375z"
        ></path>
    </g>
    <g
        id="SvgjsG1258"
        featurekey="nameFeature-0"
        transform="matrix(1.1203475238150349,0,0,1.1203475238150349,129.68173765347916,17.721034902562366)"
        fill="#111111"
    >
        <path
            d="M12.48 11.399999999999999 l0.000078124 0.96008 c-0.24 -0.05332 -0.42668 -0.05332 -0.56 0 c-0.10668 0.05332 -0.22 0.16664 -0.34 0.33996 s-0.18 0.46 -0.18 0.86 l0 16.6 l0.04 0 l0 0.78 l-0.04 0.82 l0 0.32 l0 0.38 l-0.04 0.34 c-0.05332 1.0933 -0.16664 2.08 -0.33996 2.96 s-0.46 1.64 -0.86 2.28 s-0.92668 1.16 -1.58 1.56 s-1.5 0.65332 -2.54 0.76 c-1.0667 0.05332 -1.98 -0.11336 -2.74 -0.50004 s-1.3733 -0.9 -1.84 -1.54 s-0.79336 -1.3467 -0.98004 -2.12 s-0.24 -1.5 -0.16 -2.18 s0.32 -1.2467 0.72 -1.7 s0.92 -0.68 1.56 -0.68 c0.56 0 1.0467 0.19332 1.46 0.58 s0.62 0.86 0.62 1.42 c0 0.48 -0.14668 0.89332 -0.44 1.24 s-0.65332 0.58668 -1.08 0.72 c-0.05332 0.02668 -0.12 0.04 -0.2 0.04 c-0.42668 0.13332 -0.66668 0.42664 -0.72 0.87996 s0.05336 0.92 0.32004 1.4 s0.68668 0.88668 1.26 1.22 s1.2466 0.43332 2.02 0.3 c0.53332 -0.10668 0.97332 -0.30668 1.32 -0.6 s0.62668 -0.66 0.84 -1.1 s0.36664 -0.94 0.45996 -1.5 s0.16664 -1.1467 0.21996 -1.76 l0 -1.32 l0 -19.6 c0 -0.4 -0.06 -0.68668 -0.18 -0.86 s-0.24668 -0.28664 -0.38 -0.33996 s-0.29332 -0.05332 -0.48 0 l0 -0.96 l4.84 0 z M21.6 39.76 c-0.02668 0.02668 -0.046564 0.04 -0.059884 0.04 s-0.03332 0.01332 -0.06 0.04 l-0.04 0.04 c-0.05332 0.02668 -0.11332 0.05336 -0.18 0.08004 s-0.12668 0.05336 -0.18 0.08004 c-0.56 0.24 -1.2133 0.36 -1.96 0.36 c-0.42668 0 -0.84 -0.1 -1.24 -0.3 s-0.74668 -0.36668 -1.04 -0.5 s-0.54 -0.19332 -0.74 -0.18 s-0.3 0.20664 -0.3 0.57996 l-0.76 0 l0 -4.8 l0.96 0 c-0.05332 0.85332 0.04 1.5866 0.28 2.2 c0.16 0.53332 0.47332 1.0333 0.94 1.5 s1.1667 0.7 2.1 0.7 c0.61332 0 1.12 -0.10668 1.52 -0.32 c0.69332 -0.34668 1.1666 -0.76 1.42 -1.24 s0.35332 -0.98 0.3 -1.5 s-0.24664 -1.0333 -0.57996 -1.54 s-0.74 -0.97336 -1.22 -1.4 c-0.32 -0.24 -0.65332 -0.49332 -1 -0.76 s-0.69336 -0.54668 -1.04 -0.84 c-0.93332 -0.74668 -1.6733 -1.42 -2.22 -2.02 s-0.96668 -1.16 -1.26 -1.68 s-0.49332 -1.0133 -0.6 -1.48 s-0.16 -0.96668 -0.16 -1.5 c0 -0.32 0.02 -0.61332 0.06 -0.88 s0.08668 -0.50668 0.14 -0.72 c0.08 -0.45332 0.21332 -0.89332 0.4 -1.32 s0.45336 -0.80668 0.80004 -1.14 s0.77336 -0.60664 1.28 -0.81996 s1.12 -0.32 1.84 -0.32 c0.4 0 0.8 0.08668 1.2 0.26 s0.76 0.33332 1.08 0.48 s0.57332 0.21336 0.76 0.20004 s0.28 -0.22 0.28 -0.62 l0.76 0 l0 4.96 l-1.04 0 c0.02668 -0.8 -0.06664 -1.52 -0.27996 -2.16 c-0.18668 -0.56 -0.51336 -1.0667 -0.98004 -1.52 s-1.1534 -0.68 -2.06 -0.68 c-0.72 0 -1.3067 0.16 -1.76 0.48 c-0.24 0.18668 -0.44668 0.46 -0.62 0.82 s-0.27332 0.75332 -0.3 1.18 s0.04 0.88668 0.2 1.38 s0.48 0.95332 0.96 1.38 c0.05332 0.08 0.12664 0.16 0.21996 0.24 s0.19332 0.14668 0.3 0.2 c0.08 0.05332 0.14668 0.10664 0.2 0.15996 l0.16 0.16 c0.29332 0.24 0.59332 0.48 0.9 0.72 s0.62 0.48 0.94 0.72 c0.74668 0.64 1.3667 1.22 1.86 1.74 s0.90664 1.0067 1.24 1.46 s0.58 0.88 0.74 1.28 s0.25332 0.78668 0.28 1.16 c0.26668 1.2267 0.22 2.26 -0.14 3.1 s-0.82 1.5 -1.38 1.98 l-0.04 0 c0 0.05332 -0.02668 0.08 -0.08 0.08 c-0.05332 0.05332 -0.10664 0.09332 -0.15996 0.12 l-0.24 0.16 l-0.24 0.12 l0 0.04 c-0.02668 0 -0.05336 0.0066796 -0.08004 0.02 s-0.05336 0.02 -0.08004 0.02 z M33.28 20.16 c1.52 0.02668 2.7332 0.48656 3.6399 1.3799 s1.36 2.3133 1.36 4.26 l0 8.96 c0 1.9467 -0.45332 3.36 -1.36 4.24 s-2.12 1.3467 -3.64 1.4 l-0.12 0 c-0.45332 0 -0.86664 -0.05332 -1.24 -0.16 l-0.04 0 c-0.02668 0 -0.04 -0.01332 -0.04 -0.04 c-0.61332 -0.21332 -1.1466 -0.50664 -1.6 -0.87996 l-0.38 -0.38 l-0.3 -0.42 l0 6.64 c0 0.37332 0.05332 0.64664 0.16 0.81996 s0.21336 0.28664 0.32004 0.33996 c0.16 0.08 0.33332 0.08 0.52 0 l0 1 l-4.84 0 l0 -1 c0.21332 0.08 0.37332 0.08 0.48 0 c0.13332 -0.05332 0.26 -0.16664 0.38 -0.33996 s0.18 -0.44664 0.18 -0.81996 l0 -22.56 c0 -0.37332 -0.06 -0.64664 -0.18 -0.81996 s-0.24668 -0.28664 -0.38 -0.33996 c-0.10668 -0.05332 -0.26668 -0.05332 -0.48 0 l0 -0.96 l3.84 0 l0 1.56 c0.18668 -0.29332 0.41336 -0.56 0.68004 -0.8 c0.45332 -0.4 0.98664 -0.69332 1.6 -0.88 c0 -0.02668 0.01332 -0.04 0.04 -0.04 l0.04 0 c0.42668 -0.10668 0.84 -0.16 1.24 -0.16 l0.12 0 z M35.28 24.92 l0 -0.040039 c-0.02668 -1.36 -0.19336 -2.32 -0.50004 -2.88 s-0.80668 -0.86668 -1.5 -0.92 c-0.48 -0.02668 -0.93332 0.03332 -1.36 0.18 s-0.8 0.39336 -1.12 0.74004 s-0.58668 0.81336 -0.8 1.4 s-0.36 1.28 -0.44 2.08 l0 9.6 c0.08 0.82668 0.22668 1.5267 0.44 2.1 s0.48 1.0266 0.8 1.36 s0.69332 0.58 1.12 0.74 s0.88 0.22668 1.36 0.2 c0.69332 -0.05332 1.1933 -0.36 1.5 -0.92 s0.47336 -1.52 0.50004 -2.88 l0 -0.04 l0 -10.72 z M46.32000000000001 20.16 c0.61332 0 1.2401 0.10684 1.8801 0.32016 s1.2133 0.54664 1.72 0.99996 s0.91336 1.0266 1.22 1.72 s0.46 1.52 0.46 2.48 l0 4.04 l0 0.12 l0 0.92 l-7.96 0 l0 4.12 c0 1.6533 0.28668 2.8333 0.86 3.54 s1.2866 1.0467 2.14 1.02 c0.50668 -0.02668 1.0067 -0.11336 1.5 -0.26004 s0.92 -0.39336 1.28 -0.74004 s0.66 -0.84 0.9 -1.48 s0.36 -1.48 0.36 -2.52 l0.92 0 l0 0.56 c0 0.72 -0.08 1.4067 -0.24 2.06 s-0.44 1.22 -0.84 1.7 s-0.91332 0.86 -1.54 1.14 s-1.3934 0.43332 -2.3 0.46 c-0.64 0 -1.2933 -0.12 -1.96 -0.36 s-1.2667 -0.6 -1.8 -1.08 s-0.97332 -1.0467 -1.32 -1.7 s-0.52 -1.3933 -0.52 -2.22 l0 -0.94 l-0.02 -1.54 l-0.02 -1.9 l-0.02 -1.98 l-0.02 -1.74 l0 -1.18 c0 -0.96 0.16668 -1.7933 0.5 -2.5 s0.74664 -1.28 1.24 -1.72 s1.0533 -0.77332 1.68 -1 s1.26 -0.34 1.9 -0.34 z M48.92 29.72 l0 -3.16 c0 -1.0133 -0.06668 -1.86 -0.2 -2.54 s-0.31332 -1.2267 -0.54 -1.64 s-0.5 -0.7 -0.82 -0.86 s-0.68 -0.24 -1.08 -0.24 c-0.85332 0 -1.5 0.37332 -1.94 1.12 s-0.66 2.1334 -0.66 4.16 l0 3.16 l5.24 0 z M64.84 23.32 c0 0.05332 0.013281 0.15984 0.039961 0.31984 s0.02668 0.29332 0 0.4 c-0.02668 0.56 -0.22 1.02 -0.58 1.38 s-0.79332 0.54 -1.3 0.54 c-0.53332 0 -0.98 -0.18668 -1.34 -0.56 s-0.54 -0.82664 -0.54 -1.36 c0 -0.66668 0.25332 -1.1734 0.76 -1.52 c0.05332 -0.02668 0.08664 -0.04668 0.09996 -0.06 l0.06 -0.06 c0.18668 -0.13332 0.30668 -0.32664 0.36 -0.57996 s-0.10668 -0.47332 -0.48 -0.66 c-0.24 -0.13332 -0.48 -0.2 -0.72 -0.2 c-0.8 -0.05332 -1.5067 0.18668 -2.12 0.72 s-1.0266 1.4666 -1.24 2.8 l0 13.36 c0 0.37332 0.05332 0.64664 0.16 0.81996 s0.21336 0.27332 0.32004 0.3 c0.16 0.08 0.33332 0.08 0.52 0 l0 1.04 l-4.84 0 l0 -1.04 c0.21332 0.08 0.37332 0.08 0.48 0 c0.13332 -0.02668 0.26664 -0.12668 0.39996 -0.3 s0.2 -0.44664 0.2 -0.81996 l0 -15.24 c0 -0.37332 -0.06668 -0.64664 -0.2 -0.81996 s-0.26664 -0.28664 -0.39996 -0.33996 c-0.10668 -0.05332 -0.26668 -0.05332 -0.48 0 l0 -1 l3.84 0 l0 1.64 c0.18668 -0.29332 0.37336 -0.56664 0.56004 -0.81996 s0.40668 -0.46664 0.66 -0.63996 s0.54664 -0.31332 0.87996 -0.42 s0.75332 -0.16 1.26 -0.16 c0.77332 0 1.4933 0.28 2.16 0.84 s1.16 1.3733 1.48 2.44 z M76.24000000000001 14.760000000000002 l-0.039961 0.039961 c0.02668 0.02668 0.04 0.08 0.04 0.16 c0 0.48 -0.18 0.89332 -0.54 1.24 s-0.78 0.52 -1.26 0.52 s-0.88668 -0.17332 -1.22 -0.52 s-0.5 -0.76 -0.5 -1.24 c0 -0.77332 0.33332 -1.3066 1 -1.6 c0.42668 -0.21332 0.52 -0.49332 0.28 -0.84 c0 -0.02668 -0.01332 -0.04 -0.04 -0.04 c-0.02668 -0.10668 -0.10668 -0.18668 -0.24 -0.24 c-0.26668 -0.21332 -0.58668 -0.32 -0.96 -0.32 c-0.42668 0 -0.76 0.17332 -1 0.52 s-0.40668 0.79336 -0.5 1.34 s-0.14664 1.18 -0.15996 1.9 s-0.02 1.44 -0.02 2.16 l0 0.12 l0 2.6 l3.36 0 l0 1.08 l-3.36 0 l0 16.2 c0 0.4 0.05332 0.68 0.16 0.84 s0.22668 0.25332 0.36 0.28 c0.13332 0.08 0.30664 0.08 0.51996 0 l0 1.04 l-4.84 0 l0 -1.04 c0.21332 0.08 0.38664 0.08 0.51996 0 c0.10668 -0.02668 0.22 -0.12 0.34 -0.28 s0.18 -0.44 0.18 -0.84 l0 -16.2 l-2.76 0 l0 -1.08 l2.76 0 c0 -0.16 0.0066796 -0.49332 0.02 -1 s0.02 -0.98 0.02 -1.42 s0.0066796 -0.83332 0.02 -1.18 l0.02 -0.52 c0 -0.77332 0.09332 -1.4933 0.28 -2.16 s0.46668 -1.2467 0.84 -1.74 s0.83332 -0.88 1.38 -1.16 s1.1667 -0.42 1.86 -0.42 c0.37332 0 0.77332 0.09332 1.2 0.28 s0.8 0.44668 1.12 0.78 s0.59332 0.72664 0.82 1.18 s0.34 0.97332 0.34 1.56 z M82.52000000000001 20.16 c0.64 0 1.2801 0.10672 1.9201 0.32004 s1.2267 0.54664 1.76 0.99996 s0.96664 1.04 1.3 1.76 s0.5 1.5733 0.5 2.56 l0 9.08 c0 0.77332 -0.17332 1.4933 -0.52 2.16 s-0.78 1.24 -1.3 1.72 s-1.1 0.86668 -1.74 1.16 s-1.28 0.44 -1.92 0.44 s-1.2867 -0.12 -1.94 -0.36 s-1.2333 -0.6 -1.74 -1.08 s-0.93336 -1.06 -1.28 -1.74 s-0.52 -1.4467 -0.52 -2.3 l0 -9 c0 -1.0133 0.16668 -1.88 0.5 -2.6 s0.76 -1.3133 1.28 -1.78 s1.1067 -0.80668 1.76 -1.02 s1.3 -0.32 1.94 -0.32 z M85.16 26.68 c0 -1.0133 -0.06 -1.8733 -0.18 -2.58 s-0.29332 -1.2734 -0.52 -1.7 s-0.50668 -0.72668 -0.84 -0.9 s-0.71332 -0.26 -1.14 -0.26 c-0.85332 0 -1.5066 0.39332 -1.96 1.18 s-0.68 2.2067 -0.68 4.26 l0 7.12 c0 2.0533 0.22668 3.5066 0.68 4.36 s1.1066 1.28 1.96 1.28 s1.5133 -0.42668 1.98 -1.28 s0.7 -2.3066 0.7 -4.36 l0 -7.12 z M101.08 23.32 c0 0.05332 0.013281 0.15984 0.039961 0.31984 s0.02668 0.29332 0 0.4 c-0.02668 0.56 -0.22 1.02 -0.58 1.38 s-0.79332 0.54 -1.3 0.54 c-0.53332 0 -0.98 -0.18668 -1.34 -0.56 s-0.54 -0.82664 -0.54 -1.36 c0 -0.66668 0.25332 -1.1734 0.76 -1.52 c0.05332 -0.02668 0.08664 -0.04668 0.09996 -0.06 l0.06 -0.06 c0.18668 -0.13332 0.30668 -0.32664 0.36 -0.57996 s-0.10668 -0.47332 -0.48 -0.66 c-0.24 -0.13332 -0.48 -0.2 -0.72 -0.2 c-0.8 -0.05332 -1.5067 0.18668 -2.12 0.72 s-1.0266 1.4666 -1.24 2.8 l0 13.36 c0 0.37332 0.05332 0.64664 0.16 0.81996 s0.21336 0.27332 0.32004 0.3 c0.16 0.08 0.33332 0.08 0.52 0 l0 1.04 l-4.84 0 l0 -1.04 c0.21332 0.08 0.37332 0.08 0.48 0 c0.13332 -0.02668 0.26664 -0.12668 0.39996 -0.3 s0.2 -0.44664 0.2 -0.81996 l0 -15.24 c0 -0.37332 -0.06668 -0.64664 -0.2 -0.81996 s-0.26664 -0.28664 -0.39996 -0.33996 c-0.10668 -0.05332 -0.26668 -0.05332 -0.48 0 l0 -1 l3.84 0 l0 1.64 c0.18668 -0.29332 0.37336 -0.56664 0.56004 -0.81996 s0.40668 -0.46664 0.66 -0.63996 s0.54664 -0.31332 0.87996 -0.42 s0.75332 -0.16 1.26 -0.16 c0.77332 0 1.4933 0.28 2.16 0.84 s1.16 1.3733 1.48 2.44 z M122.6 38.04 c0 0.37332 0.053164 0.6266 0.15984 0.75992 s0.22668 0.21332 0.36 0.24 c0.13332 0.05332 0.29332 0.026641 0.48 -0.08004 l0 1.04 l-4.8 0 l0 -1.04 c0.16 0.05332 0.32 0.05332 0.48 0 c0.13332 -0.02668 0.24664 -0.10668 0.33996 -0.24 s0.15332 -0.36 0.18 -0.68 l0 -11.44 l0 -0.98 l-0.04 -0.78 l0 -0.04 c-0.05332 -1.36 -0.21332 -2.32 -0.48 -2.88 s-0.70668 -0.85332 -1.32 -0.88 c-0.88 -0.02668 -1.6333 0.26 -2.26 0.86 s-1.0334 1.6467 -1.22 3.14 c0 0.10668 0.0066796 0.22 0.02 0.34 s0.02 0.24668 0.02 0.38 l0 5.72 l0 6.36 c0 0.37332 0.06 0.64664 0.18 0.81996 s0.24668 0.27332 0.38 0.3 c0.10668 0.08 0.26668 0.08 0.48 0 l0 1.04 l-4.8 0 l0 -1.04 c0.16 0.05332 0.32 0.05332 0.48 0 c0.10668 -0.02668 0.21336 -0.10668 0.32004 -0.24 s0.17336 -0.36 0.20004 -0.68 l0 -11.4 l0 -0.98 l-0.04 -0.78 l0 -0.04 c-0.05332 -1.36 -0.21332 -2.32 -0.48 -2.88 s-0.73336 -0.85332 -1.4 -0.88 c-0.82668 -0.05332 -1.5667 0.24 -2.22 0.88 s-1.0466 1.7333 -1.18 3.28 l0 12.6 c0 0.37332 0.05332 0.64664 0.16 0.81996 s0.21336 0.27332 0.32004 0.3 c0.16 0.08 0.33332 0.08 0.52 0 l0 1.04 l-4.8 0 l0 -1.04 c0.18668 0.08 0.34668 0.08 0.48 0 c0.13332 -0.02668 0.26 -0.12668 0.38 -0.3 s0.18 -0.44664 0.18 -0.81996 l0 -15.2 c0 -0.37332 -0.06 -0.64664 -0.18 -0.81996 s-0.24668 -0.28664 -0.38 -0.33996 s-0.29332 -0.05332 -0.48 0 l0 -1 l3.8 0 l0 1.52 c0.16 -0.26668 0.36 -0.52 0.6 -0.76 c0.24 -0.21332 0.48 -0.39332 0.72 -0.54 s0.49332 -0.26 0.76 -0.34 c0.02668 -0.02668 0.05336 -0.04 0.08004 -0.04 s0.05336 -0.01332 0.08004 -0.04 c0.16 -0.05332 0.33332 -0.08664 0.52 -0.09996 s0.38668 -0.02 0.6 -0.02 l0.08 0 c0.98668 0.02668 1.84 0.24668 2.56 0.66 s1.2533 1.0866 1.6 2.02 c0.24 -0.66668 0.6 -1.2134 1.08 -1.64 c0.45332 -0.37332 0.96 -0.66664 1.52 -0.87996 l0 -0.04 l0.04 0 c0.34668 -0.08 0.73336 -0.12 1.16 -0.12 l0.16 0 c1.3867 0.02668 2.5 0.47336 3.34 1.34 s1.26 2.2734 1.26 4.22 l0 5.76 l0 6.56 z M139.51999999999998 38.28 c0 0.21332 -0.05332 0.4332 -0.16 0.65988 s-0.26 0.44 -0.46 0.64 s-0.45332 0.38 -0.76 0.54 s-0.66 0.24 -1.06 0.24 c-0.64 0 -1.2133 -0.14668 -1.72 -0.44 s-0.85336 -0.68 -1.04 -1.16 c-0.16 -0.26668 -0.28 -0.57336 -0.36 -0.92004 c-0.34668 0.72 -0.87336 1.32 -1.58 1.8 s-1.4867 0.72 -2.34 0.72 c-1.0667 0 -2 -0.38668 -2.8 -1.16 c-0.45332 -0.4 -0.82664 -0.92 -1.12 -1.56 s-0.46664 -1.3733 -0.51996 -2.2 c-0.02668 -0.08 -0.04 -0.24 -0.04 -0.48 l0 -0.04 c0.02668 -0.45332 0.10668 -0.92664 0.24 -1.42 s0.34 -0.98664 0.62 -1.48 s0.61332 -0.96 1 -1.4 s0.80668 -0.82 1.26 -1.14 c0.10668 -0.05332 0.19336 -0.11332 0.26004 -0.18 s0.16668 -0.14 0.3 -0.22 l0.12 -0.06 l0.12 -0.06 c0.48 -0.29332 0.9 -0.56 1.26 -0.8 s0.68668 -0.46668 0.98 -0.68 c0.16 -0.10668 0.32 -0.22668 0.48 -0.36 s0.33332 -0.26664 0.52 -0.39996 c0.24 -0.16 0.46668 -0.34668 0.68 -0.56 s0.37332 -0.46664 0.48 -0.75996 c0.16 -0.26668 0.24 -0.58668 0.24 -0.96 s-0.04 -0.70664 -0.12 -0.99996 c-0.10668 -0.58668 -0.38 -1.0934 -0.82 -1.52 s-0.92668 -0.70668 -1.46 -0.84 c-0.24 -0.08 -0.46668 -0.12 -0.68 -0.12 c-0.74668 0 -1.3867 0.13332 -1.92 0.4 c-0.34668 0.16 -0.6 0.34 -0.76 0.54 s-0.24668 0.38668 -0.26 0.56 s0.02 0.31332 0.1 0.42 s0.18668 0.18668 0.32 0.24 c0.05332 0.02668 0.08664 0.04 0.09996 0.04 s0.04664 0.01332 0.09996 0.04 c0.34668 0.13332 0.63336 0.36664 0.86004 0.69996 s0.34 0.7 0.34 1.1 c0 0.50668 -0.18 0.94 -0.54 1.3 s-0.79332 0.54 -1.3 0.54 c-0.53332 0 -0.98664 -0.18 -1.36 -0.54 s-0.56 -0.79332 -0.56 -1.3 c0 -0.45332 0.06 -0.92664 0.18 -1.42 s0.3 -0.94 0.54 -1.34 c0.50668 -0.74668 1.1134 -1.2867 1.82 -1.62 s1.4867 -0.5 2.34 -0.5 c0.64 0 1.2733 0.12 1.9 0.36 s1.1867 0.58 1.68 1.02 s0.90664 0.96668 1.24 1.58 s0.5 1.32 0.5 2.12 l0 11.76 c0 0.48 0.0066796 0.79332 0.02 0.94 s0.02 0.24668 0.02 0.3 l0 0 c0 0.34668 0.10668 0.62668 0.32 0.84 s0.46664 0.32 0.75996 0.32 c0.34668 0 0.62668 -0.1 0.84 -0.3 s0.33332 -0.46 0.36 -0.78 l0.84 0 z M133.23999999999998 37.2799 c0.21332 -0.37332 0.33988 -0.77324 0.37988 -1.1999 s0.06 -0.82668 0.06 -1.2 l0 -7.4 c-0.10668 0.10668 -0.22 0.20668 -0.34 0.3 s-0.24668 0.20664 -0.38 0.33996 c-0.77332 0.56 -1.4333 1.0733 -1.98 1.54 s-1.0067 0.94668 -1.38 1.44 s-0.66664 1.02 -0.87996 1.58 s-0.34664 1.2 -0.39996 1.92 l0 0.6 c0.02668 1.0133 0.3 1.8066 0.82 2.38 s1.26 0.86 2.22 0.86 c0.42668 0 0.81336 -0.10668 1.16 -0.32 c0.34668 -0.24 0.58668 -0.52 0.72 -0.84 z M147.59999999999997 20.16 c1.4133 0.05332 2.5398 0.51328 3.3798 1.38 s1.26 2.2734 1.26 4.22 l0 5.84 l0 6.24 c0 0.53332 0.09332 0.86 0.28 0.98 s0.34668 0.18 0.48 0.18 l0.2 0 c0.02668 0 0.05336 -0.01332 0.08004 -0.04 l0 1.04 l-4.8 0 l0 -1.04 c0.02668 0.02668 0.05336 0.04 0.08004 0.04 l0.16 0 c0.13332 0 0.28 -0.05332 0.44 -0.16 s0.26668 -0.37336 0.32 -0.80004 l0 -11.36 c0 -0.37332 -0.0066796 -0.70664 -0.02 -0.99996 s-0.02 -0.56 -0.02 -0.8 l0 -0.04 c-0.05332 -1.3333 -0.22 -2.28 -0.5 -2.84 s-0.72668 -0.86668 -1.34 -0.92 l-0.16 0 c-0.85332 0 -1.58 0.32 -2.18 0.96 s-0.96668 1.72 -1.1 3.24 l0 12.56 c0 0.53332 0.08668 0.86 0.26 0.98 s0.34 0.18 0.5 0.18 l0.16 0 c0.02668 0 0.05336 -0.01332 0.08004 -0.04 l0 1.04 l-4.8 0 l0 -1.04 c0.02668 0.02668 0.05336 0.04 0.08004 0.04 l0.2 0 c0.13332 0 0.3 -0.06 0.5 -0.18 s0.3 -0.44668 0.3 -0.98 l0 -15.28 c0 -0.50668 -0.1 -0.82668 -0.3 -0.96 s-0.36668 -0.2 -0.5 -0.2 l-0.12 0 l-0.08 0 l-0.08 0 l0 -0.92 l3.8 0 l0 1.56 c0.10668 -0.16 0.2 -0.30668 0.28 -0.44 s0.18668 -0.25332 0.32 -0.36 c0.42668 -0.4 0.92 -0.69332 1.48 -0.88 l0.08 0 c0 -0.02668 0.01332 -0.04 0.04 -0.04 c0.18668 -0.05332 0.37336 -0.09332 0.56004 -0.12 s0.38668 -0.04 0.6 -0.04 l0.08 0 z M160.35999999999999 21.08 c-0.85332 0.05332 -1.5666 0.48676 -2.14 1.3001 s-0.86 2.0333 -0.86 3.66 l0 8.84 c0 0.90668 0.08668 1.6534 0.26 2.24 s0.41332 1.0534 0.72 1.4 s0.66668 0.58668 1.08 0.72 s0.84664 0.2 1.3 0.2 c0.56 0 1.0933 -0.08 1.6 -0.24 s0.96 -0.42668 1.36 -0.8 s0.72 -0.88664 0.96 -1.54 s0.36 -1.46 0.36 -2.42 l0.88 0 l0 0.52 c0 0.74668 -0.1 1.4467 -0.3 2.1 s-0.52 1.2266 -0.96 1.72 s-1.0067 0.88 -1.7 1.16 s-1.5466 0.42 -2.56 0.42 c-0.64 0 -1.2933 -0.12668 -1.96 -0.38 s-1.2667 -0.61332 -1.8 -1.08 s-0.97332 -1.0334 -1.32 -1.7 s-0.52 -1.4134 -0.52 -2.24 l0 -8.96 c0 -0.90668 0.17332 -1.72 0.52 -2.44 s0.78668 -1.3333 1.32 -1.84 s1.1333 -0.89336 1.8 -1.16 s1.32 -0.4 1.96 -0.4 c0.32 0 0.62668 0.01332 0.92 0.04 s0.58664 0.10668 0.87996 0.24 c0.02668 0.02668 0.06668 0.04 0.12 0.04 l0.32 0.12 c0.29332 0.05332 0.6 0.18 0.92 0.38 s0.6 0.3 0.84 0.3 c0.32 0 0.48 -0.26668 0.48 -0.8 l1.04 0 l0 6.76 l-0.88 0 c0 -0.34668 -0.01332 -0.74 -0.04 -1.18 s-0.08668 -0.88 -0.18 -1.32 s-0.24 -0.87332 -0.44 -1.3 s-0.46 -0.81336 -0.78 -1.16 c-0.48 -0.48 -1 -0.8 -1.56 -0.96 s-1.1067 -0.24 -1.64 -0.24 z M173.51999999999995 20.16 c0.61332 0 1.2401 0.10684 1.8801 0.32016 s1.2133 0.54664 1.72 0.99996 s0.91336 1.0266 1.22 1.72 s0.46 1.52 0.46 2.48 l0 4.04 l0 0.12 l0 0.92 l-7.96 0 l0 4.12 c0 1.6533 0.28668 2.8333 0.86 3.54 s1.2866 1.0467 2.14 1.02 c0.50668 -0.02668 1.0067 -0.11336 1.5 -0.26004 s0.92 -0.39336 1.28 -0.74004 s0.66 -0.84 0.9 -1.48 s0.36 -1.48 0.36 -2.52 l0.92 0 l0 0.56 c0 0.72 -0.08 1.4067 -0.24 2.06 s-0.44 1.22 -0.84 1.7 s-0.91332 0.86 -1.54 1.14 s-1.3934 0.43332 -2.3 0.46 c-0.64 0 -1.2933 -0.12 -1.96 -0.36 s-1.2667 -0.6 -1.8 -1.08 s-0.97332 -1.0467 -1.32 -1.7 s-0.52 -1.3933 -0.52 -2.22 l0 -0.94 l-0.02 -1.54 l-0.02 -1.9 l-0.02 -1.98 l-0.02 -1.74 l0 -1.18 c0 -0.96 0.16668 -1.7933 0.5 -2.5 s0.74664 -1.28 1.24 -1.72 s1.0533 -0.77332 1.68 -1 s1.26 -0.34 1.9 -0.34 z M176.11999999999998 29.72 l0 -3.16 c0 -1.0133 -0.06668 -1.86 -0.2 -2.54 s-0.31332 -1.2267 -0.54 -1.64 s-0.5 -0.7 -0.82 -0.86 s-0.68 -0.24 -1.08 -0.24 c-0.85332 0 -1.5 0.37332 -1.94 1.12 s-0.66 2.1334 -0.66 4.16 l0 3.16 l5.24 0 z"
        ></path>
    </g>
</svg>
